<?xml version="1.0" encoding="UTF-8" standalone="no"?>
<svg width="459px" height="167px" viewBox="0 0 459 167" version="1.1" xmlns="http://www.w3.org/2000/svg" xmlns:xlink="http://www.w3.org/1999/xlink" xmlns:sketch="http://www.bohemiancoding.com/sketch/ns">
    <!-- Generator: Sketch 3.3 (11970) - http://www.bohemiancoding.com/sketch -->
    <title>logo-curvas copy</title>
    <desc>Created with Sketch.</desc>
    <defs></defs>
    <g id="Page-1" stroke="none" stroke-width="1" fill="none" fill-rule="evenodd" sketch:type="MSPage">
        <g id="logo-curvas-copy" sketch:type="MSLayerGroup">
            <g id="Group" sketch:type="MSShapeGroup">
                <g>
                    <g id="RzVzn8_9_" transform="translate(229.000000, 0.000000)" fill="#A02140">
                        <g id="Group">
                            <path d="M59.1,76.6 C59.1,76.5 59,76.3 58.9,76.2 C58.2,76 58.3,75.4 58.2,74.9 C58.1,73.9 57.7,73 58.1,72 C58.1,71.9 58.1,71.6 57.9,71.4 C57.4,70.9 57.3,70.4 57.5,69.8 C57.6,69.4 57.7,69 57.2,68.9 C56.7,68.8 56.5,69.1 56.4,69.5 C56.3,69.9 56.1,70 55.8,70 C51.7,69.9 47.6,69.4 43.7,68.4 C43.3,68.3 43.1,68.1 43,67.7 C42.8,66.8 42.6,65.9 42.3,65.1 C41.9,63.9 41.4,62.7 41.3,61.4 C41.2,60.6 40.4,59.7 39.6,59 C39.2,58.7 38.4,58.7 37.7,58.7 C36.8,58.7 35.9,58.5 35.1,58.1 C34.6,57.8 34,57.5 33.8,57 C33.7,56.6 33.9,56 34.2,55.5 C34.5,55 34.6,54.4 34.2,54.1 C33.6,53.4 33.5,52.8 33.9,52 C34,51.8 34,51.6 34,51.5 C34,50.8 34,50 34.1,49.3 C34.5,47.1 34.2,45 33.4,42.9 C33.2,42.3 33.1,41.6 33,40.7 C34.8,41.2 36.5,41.6 38.2,42 C37.1,42.7 38.2,43.5 37.8,44.2 C38.2,44.1 38.5,44 38.8,43.9 C38.7,43.3 38.7,42.7 38.6,42.3 C38.9,42.1 39.1,42 39.3,41.9 C39.4,41.8 39.6,41.8 39.7,41.7 C40,41.4 40.6,41.2 40.7,40.9 C40.8,40.4 41,39.7 40.2,39.5 C39.8,39.4 39.3,39.3 39,39.5 C37.8,40.3 36.6,40 35.4,39.6 C34.6,39.3 33.7,39 33.6,38 C33.6,37.6 33.5,37.1 33.3,36.8 C32.9,36.1 33,35.4 33.3,34.7 C33.4,34.3 33.4,33.8 33.3,33.3 C33.2,32.9 33.1,32.5 32.9,32.1 C33.8,31.8 34.5,31.2 34.5,30.5 C34.5,29.8 33.7,29.4 33,29 C32.9,28.9 32.8,28.9 32.7,28.9 C32.1,28.7 30.8,27 30.9,26.4 C31,25.4 31.1,24.5 31.3,23.5 C31.4,22.8 31.2,22.4 30.7,21.9 C30.6,21.8 30.5,21.6 30.3,21.5 C30,21.3 29.8,21.1 29.5,21.1 C28.5,21 27.5,20.9 26.6,21.7 C26.5,21.8 26.4,21.8 26.2,21.8 C26.1,20.8 25.5,20 26,19 C26.3,18.4 26.4,17.7 26.5,17 C26.7,16.2 26.8,15.4 27.1,14.7 C27.3,14.2 27.6,13.8 27.9,13.4 C28.2,13.1 28.7,13 29.1,12.8 C29.4,12.8 29.9,12.9 29.9,12.9 C30.1,12 30.8,12.6 31.1,12.5 C31.9,11.7 33.2,11.6 33.4,10.5 C34.6,10.1 34.3,8.8 35,8.1 L34.3,8.1 C34.1,7.6 33.8,7.1 33.6,6.6 C33.4,6.8 33.2,6.9 33,7.1 C32.8,6.8 32.7,6.6 32.6,6.5 C32,6.7 31.6,6.7 31.3,6.2 C31.2,6.1 30.9,6 30.7,6.1 C29.7,6.6 28.8,7.1 28,7.5 C27.7,7.4 27.4,7.3 27.3,7.3 C27,7.6 26.6,8 26.5,8.4 C26.4,9 26.5,9.7 26.5,10.4 C26.5,10.9 27,11.1 26.7,11.7 C25.8,13.1 24.9,14.6 24.2,16.1 C23.7,17.1 23.4,18.1 23.3,19.2 C23.1,21.6 23.1,24 23.1,26.5 C22.8,26.4 22.5,26.3 22.3,26.2 C20.6,25.4 19.9,24 19.9,22.3 C19.9,21.2 19.8,20 19.2,19 C18.8,18.3 18.5,17.5 17.9,16.8 C17.2,16.1 16.9,15.1 16.4,14.3 C16,13.8 15.6,13.4 15.1,12.9 C14.5,12.4 13.9,12 13.3,11.5 C12.8,11 12.1,10.6 11.7,10 C11.3,9.4 10.7,9.1 10.2,8.7 C9.7,8.2 9.2,7.6 8.7,7.1 C8.2,6.5 7.5,6 7.1,5.4 C6.1,3.9 5.1,2.4 4.2,0.9 C4,0.5 3.7,0.4 3.4,0.8 C3,1.3 2.5,1.9 2.6,2.4 C2.7,3.5 3,4.6 3.3,5.7 C3.4,5.9 3.6,6.1 3.8,6.3 C3.8,6.4 3.8,6.5 3.9,6.5 C3.8,6.5 3.8,6.6 3.7,6.6 C3.4,6.2 2.9,5.8 2.8,5.3 C2.6,4.6 2.1,4.6 1.6,4.6 C1,4.7 0.9,5.2 1,5.6 C1.2,6.3 1.4,6.9 1.7,7.6 C0.9,7.5 0.9,8 0.9,8.5 C0.9,9.8 1.3,10.9 2.5,11.6 C2.9,11.8 3.2,12.2 3.5,12.5 C3.5,12.6 3.4,12.6 3.4,12.7 C2.6,12.4 2.5,12.8 2.5,13.3 C2.5,14.6 3.3,15.6 4.3,16.4 C5,17 6,17.4 6.7,17.9 C6.6,18.2 6.4,18.6 6.5,18.9 C6.7,19.4 7.1,19.9 6.8,20.5 C6.7,20.6 6.8,20.8 6.9,20.9 C7.4,22.1 8.4,22.6 9.5,23.1 C9.2,25.1 10.8,25.6 12.4,26.2 C12.2,26.4 12,26.5 11.8,26.6 C11.3,27 10.9,28.2 11.2,28.7 C11.6,29.3 12,29.9 12.5,30.4 C12.7,30.6 13.1,30.7 13.4,30.7 C13.9,30.7 14.1,30.8 14.1,31.3 C14.1,31.9 14.5,32.1 15,32.4 C15.5,32.6 15.9,33 16.3,33.3 C16.6,33.5 16.9,33.9 17.3,34 C17.8,34.1 18.4,33.9 18.9,34.1 C19.7,34.5 20.5,34.3 21.3,34.1 C21.7,34.4 21.6,34.6 21.4,35 C21.1,35.7 20.9,36.6 20.6,37.3 C20.3,38 20.6,38.8 19.8,39.3 C18.5,40 17.7,41 17.6,42.4 C17.6,42.5 17.5,42.7 17.4,42.7 C16.1,43.5 15.3,44.6 14.5,45.7 C14.1,46.2 13.8,46.2 13.2,45.9 C12.3,45.4 10.9,46 10.8,47 C10.8,47.6 10.7,48.2 11,48.9 C11.4,49.8 12.1,50.2 13,50.5 C13.3,50.6 13.5,50.7 13.7,51 C14.5,52 15.1,53.1 16,54 C16.7,54.7 17.2,55.4 17.1,56.4 C17,56.9 17.2,57.4 17.9,57.1 C18.1,57.5 18.2,57.8 18.3,58.2 L18.1,58.2 C18,58.7 18,59.2 17.9,59.6 C17.9,59.9 17.9,60.3 17.7,60.5 C16.7,62 15.7,63.5 14.5,64.7 C13.3,65.9 13.5,67.4 13.3,68.8 C13.2,69.6 13.6,70.4 13.9,71.2 C14.1,71.7 14,72 13.7,72.3 C11.9,74.4 10,76.4 7.7,78 C5.9,79.3 4,80.4 2.1,81.7 C2.1,81.6 2.1,81.5 2,81.4 C1.6,81.3 1.2,81 0.9,81.1 C0.3,81.3 0.6,81.8 0.8,82.1 C0.9,82.4 1,82.7 1,83 C1,84.5 1,86 1.1,87.5 C1.1,87.9 1.1,88.2 0.6,88.4 C0.1,88.5 0.1,88.8 0.3,89.2 C0.7,90 1.1,90.9 1.4,91.8 C1.6,92.3 1.8,92.6 2.5,92.5 C2.7,92.5 3,92.6 3.3,92.6 C2.3,93.6 3.3,94.1 3.6,94.7 C3.3,94.9 3.1,95 2.8,95.2 L2.8,95.4 C3.2,95.5 3.6,95.5 4,95.6 C4.2,95.7 4.3,95.9 4.4,96 C4.6,96.4 4.7,96.9 5,97.1 C6.2,97.9 7.6,98.4 8.6,99.4 C8.7,99.5 8.8,99.6 9,99.6 C9.8,100 10.6,99.7 10.8,98.8 C10.9,98.4 11,98.1 11.2,97.5 C11.6,97.9 11.8,98.2 12.1,98.2 C13,98.4 13.5,99 14.1,99.6 C14.3,99.9 14.3,100 14.1,100.4 C13.6,101.3 13.3,102.2 13.8,103.1 C14.1,103.6 14.3,104 15.1,103.8 C15.6,103.6 16.4,104.3 16.4,104.7 C16.4,105.1 16.4,105.5 16.5,105.9 C16.6,106.7 16.7,107.5 16.8,108.3 C17,109.4 17.3,110.4 17.6,111.5 C17.7,111.9 17.9,112.3 17.9,112.7 C17.9,116.6 17.9,120.4 18,124.3 C18,128.7 18.2,133.1 18.2,137.5 C18.2,138.9 18.4,140.2 17.7,141.5 C17.6,141.8 17.5,142.2 17.6,142.4 C17.9,143.2 17.7,144 17.5,144.8 C17.4,145.2 17.4,145.7 17.4,146.2 C17.4,147.5 17.4,148.8 17.6,150 C17.7,151 18.1,151.9 18.3,152.9 C18.4,153.5 18.7,154 18.7,154.6 C18.8,157.1 18.9,159.6 18.9,162.1 C18.9,162.7 19.2,162.9 19.8,162.9 L52.5,162.9 C52.8,162.9 53,162.9 53.3,162.8 L53.3,162.3 C53.1,160.5 52.8,158.6 52.6,156.8 C52.4,154.9 52,153.1 52.2,151.2 C52.3,149.8 52.2,148.3 52.1,146.8 C52.1,146.3 52,145.8 51.9,145.3 C51.8,143.6 51.5,142 50.4,140.5 C50.2,140.3 50.1,139.9 50.1,139.6 C48.5,129.9 47,120.3 45.4,110.6 C45.3,110.3 45.4,109.9 45.5,109.6 C45.9,108.2 46.3,106.9 46,105.5 C45.9,105.4 46,105.2 46,105 C46.1,103.9 46.3,102.7 46.2,101.6 C46,100.2 45.9,100.2 47.4,99.6 L47.4,99.6 C49.1,98.8 50.4,97.7 50.7,95.8 C50.8,95.3 51.3,94.8 51.8,94.3 C51.7,94.2 51.5,94 51.3,93.7 C51,93.3 50.9,93.1 51.5,92.8 C51.9,92.6 52.2,92.1 52.4,91.7 C52.8,90.7 53.1,89.7 53.5,88.8 C53.6,88.6 53.8,88.4 54,88.3 C55.1,87.7 55.9,86.8 56.1,85.6 C56.3,85 56.5,84.5 57.1,84.1 C57.7,83.7 58.1,83.1 58.7,82.6 C58.2,82.5 57.9,82.5 57.6,82.4 C57.4,81.8 57.3,81.3 57,80.8 L58.8,79.9 C59.3,79.7 59.5,79.4 59.3,78.8 C59.7,78.4 59.4,77.5 59.1,76.6 L59.1,76.6 Z" id="Shape"></path>
                            <path d="M12,97.7 C11.8,98.2 11.7,98.6 11.6,99 C11.4,99.8 10.6,100.2 9.8,99.8 C9.7,99.7 9.5,99.7 9.4,99.6 C8.3,98.6 7,98.1 5.8,97.3 C5.5,97.1 5.4,96.6 5.2,96.2 C5.1,96 4.9,95.8 4.8,95.8 C4.4,95.7 4,95.7 3.6,95.6 L3.6,95.4 C3.8,95.2 4.1,95.1 4.4,94.9 C4,94.3 3.1,93.8 4.1,92.8 C3.7,92.7 3.5,92.6 3.3,92.7 C2.7,92.8 2.4,92.5 2.2,92 C1.8,91.1 1.5,90.3 1.1,89.4 C0.9,89 0.9,88.7 1.4,88.6 C1.9,88.5 2,88.1 1.9,87.7 C1.9,86.2 1.9,84.7 1.8,83.2 C1.8,82.9 1.7,82.6 1.6,82.3 C1.4,81.9 1.2,81.5 1.7,81.3 C2,81.2 2.4,81.5 2.8,81.6 C2.8,81.7 2.8,81.8 2.9,81.9 C4.8,80.7 6.7,79.5 8.5,78.2 C10.8,76.6 12.7,74.6 14.5,72.5 C14.8,72.1 14.8,71.8 14.7,71.4 C14.4,70.6 14,69.8 14.1,69 C14.3,67.6 14.1,66.2 15.3,64.9 C16.5,63.6 17.5,62.1 18.5,60.7 C18.7,60.5 18.7,60.1 18.7,59.8 C18.8,59.3 18.9,58.9 18.9,58.4 L19.1,58.4 C19,58.1 18.8,57.7 18.7,57.3 C17.9,57.6 17.8,57.2 17.9,56.6 C18,55.6 17.5,54.9 16.8,54.2 C15.9,53.3 15.3,52.2 14.5,51.2 C14.3,51 14.1,50.8 13.8,50.7 C12.9,50.4 12.2,50 11.8,49.1 C11.5,48.4 11.6,47.8 11.6,47.2 C11.6,46.3 13.1,45.6 14,46.1 C14.5,46.4 14.9,46.4 15.3,45.9 C16.2,44.8 17,43.7 18.2,42.9 C18.3,42.8 18.4,42.7 18.4,42.6 C18.4,41.1 19.3,40.2 20.6,39.5 C21.5,39 21.2,38.2 21.4,37.5 C21.7,36.7 21.9,35.9 22.2,35.2 C22.4,34.8 22.5,34.6 22.1,34.3 C21.3,34.5 20.5,34.7 19.7,34.3 C19.3,34.1 18.6,34.3 18.1,34.2 C17.7,34.1 17.4,33.8 17.1,33.5 C16.7,33.2 16.2,32.9 15.8,32.6 C15.3,32.4 14.8,32.1 14.9,31.5 C14.9,31.1 14.7,30.9 14.2,30.9 C13.9,30.9 13.5,30.8 13.3,30.6 C12.8,30.1 12.4,29.5 12,28.9 C11.7,28.4 12,27.2 12.6,26.8 C12.7,26.7 12.9,26.6 13.2,26.4 C11.6,25.8 10,25.3 10.3,23.3 C9.2,22.8 8.1,22.2 7.7,21.1 C7.6,21 7.5,20.7 7.6,20.7 C8,20.1 7.5,19.7 7.3,19.1 C7.2,18.8 7.4,18.4 7.5,18.1 C6.7,17.7 5.8,17.2 5.1,16.6 C4.2,15.8 3.3,14.9 3.3,13.5 C3.3,13 3.4,12.5 4.2,12.9 C4.2,12.8 4.2,12.8 4.3,12.7 C4,12.4 3.7,12.1 3.3,11.8 C2.1,11 1.7,9.9 1.7,8.7 C1.7,8.1 1.7,7.7 2.5,7.8 C2.3,7.1 2,6.5 1.8,5.8 C1.7,5.3 1.8,4.8 2.4,4.8 C3,4.7 3.4,4.7 3.6,5.5 C3.7,6 4.2,6.4 4.5,6.8 C4.6,6.8 4.6,6.7 4.7,6.7 C4.7,6.6 4.7,6.5 4.6,6.5 C4.4,6.3 4.1,6.2 4.1,5.9 C3.8,4.8 3.4,3.7 3.4,2.6 C3.4,2.1 3.9,1.5 4.2,1 C4.5,0.6 4.7,0.8 5,1.1 C5.9,2.6 6.9,4.1 7.9,5.6 C8.3,6.2 9,6.7 9.5,7.3 C10,7.8 10.5,8.3 11,8.9 C11.5,9.4 12.1,9.6 12.5,10.2 C12.9,10.8 13.5,11.2 14.1,11.7 C14.7,12.2 15.3,12.6 15.9,13.1 C16.4,13.5 16.8,14 17.2,14.5 C17.7,15.3 18,16.3 18.7,17 C19.3,17.7 19.6,18.4 20,19.2 C20.6,20.2 20.7,21.4 20.7,22.5 C20.7,24.2 21.4,25.5 23.1,26.4 C23.3,26.5 23.5,26.6 23.9,26.7 C24,24.2 23.9,21.8 24.1,19.4 C24.2,18.4 24.6,17.3 25,16.3 C25.7,14.8 26.6,13.3 27.5,11.9 C27.8,11.4 27.3,11.1 27.3,10.6 C27.3,9.9 27.2,9.3 27.3,8.6 C27.4,8.2 27.8,7.9 28.1,7.5 C28.2,7.4 28.5,7.6 28.8,7.7 C29.6,7.3 30.6,6.7 31.5,6.3 C31.6,6.2 32,6.3 32.1,6.4 C32.4,6.9 32.8,6.8 33.4,6.7 C33.5,6.9 33.7,7.1 33.8,7.3 C34,7.1 34.2,7 34.4,6.8 C34.7,7.3 34.9,7.8 35.1,8.3 L35.8,8.3 C35,9 35.4,10.3 34.2,10.7 C33.9,11.8 32.6,11.9 31.9,12.7 C31.6,12.7 31,12.1 30.7,13.1 C30.7,13.1 30.2,13.1 29.9,13 C29.6,13.2 29.1,13.3 28.7,13.6 C28.3,14 28,14.4 27.9,14.9 C27.6,15.7 27.5,16.4 27.3,17.2 C27.1,17.9 27,18.6 26.8,19.2 C26.3,20.2 26.9,21.1 27,22 C27.1,22 27.3,22 27.4,21.9 C28.2,21.2 29.3,21.2 30.3,21.3 C30.6,21.3 30.8,21.6 31.1,21.7 C31.3,21.8 31.3,22 31.5,22.1 C32,22.5 32.2,23 32.1,23.7 C31.9,24.6 31.8,25.6 31.7,26.6 C31.6,27.2 32.9,28.9 33.5,29.1 C33.6,29.1 33.7,29.2 33.8,29.2 C34.5,29.5 35.3,29.9 35.3,30.7 C35.3,31.4 34.6,32 33.7,32.3 C33.8,32.7 34,33.1 34.1,33.5 C34.2,34 34.2,34.5 34.1,34.9 C33.8,35.6 33.7,36.3 34.1,37 C34.3,37.3 34.4,37.8 34.4,38.2 C34.5,39.2 35.3,39.5 36.2,39.8 C37.4,40.2 38.6,40.5 39.8,39.7 C40.1,39.5 40.6,39.6 41,39.7 C41.8,39.9 41.6,40.6 41.5,41.1 C41.4,41.4 40.9,41.6 40.5,41.9 C40.4,42 40.2,42 40.1,42.1 C39.9,42.2 39.7,42.4 39.4,42.5 C39.4,43 39.5,43.5 39.6,44.1 C39.3,44.2 39,44.3 38.6,44.4 C39,43.7 37.9,42.9 39,42.2 C37.2,41.7 35.6,41.3 33.8,40.9 C33.9,41.7 34,42.4 34.2,43.1 C35,45.2 35.2,47.3 34.9,49.5 C34.8,50.2 34.8,51 34.8,51.7 C34.8,51.9 34.8,52.1 34.7,52.2 C34.3,53 34.4,53.6 35,54.3 C35.4,54.7 35.3,55.2 35,55.7 C34.7,56.1 34.5,56.8 34.6,57.2 C34.8,57.7 35.4,58 35.9,58.3 C36.7,58.7 37.5,58.9 38.5,58.9 C39.1,58.9 40,58.9 40.4,59.2 C41.1,59.9 42,60.8 42.1,61.6 C42.1,62.9 42.7,64.1 43.1,65.3 C43.4,66.2 43.6,67.1 43.8,67.9 C43.9,68.3 44.1,68.5 44.5,68.6 C48.5,69.6 52.5,70.1 56.6,70.2 C57,70.2 57.2,70.1 57.2,69.7 C57.3,69.3 57.5,69 58,69.1 C58.5,69.2 58.4,69.6 58.3,70 C58.1,70.6 58.2,71.2 58.7,71.6 C58.8,71.7 58.9,72 58.9,72.2 C58.5,73.2 58.8,74.2 59,75.1 C59.1,75.6 59,76.2 59.7,76.4 C59.8,76.4 59.8,76.6 59.9,76.8 C60.2,77.7 60.5,78.6 60.8,79.5 C61,80 60.8,80.3 60.3,80.6 L58.5,81.5 C58.7,82.1 58.9,82.5 59.1,83.1 C59.3,83.1 59.7,83.2 60.2,83.3 C59.6,83.9 59.1,84.4 58.6,84.8 C58.1,85.2 57.8,85.7 57.6,86.3 C57.4,87.5 56.5,88.3 55.5,89 C55.3,89.1 55.1,89.3 55,89.5 C54.6,90.5 54.3,91.5 53.9,92.4 C53.7,92.8 53.4,93.3 53,93.5 C52.4,93.8 52.5,94 52.8,94.4 C53,94.6 53.2,94.9 53.3,95 C52.9,95.6 52.3,96 52.2,96.5 C51.9,98.4 50.6,99.5 48.9,100.3 L48.9,100.3 C47.5,100.9 47.6,100.9 47.7,102.3 C47.8,103.4 47.6,104.6 47.5,105.7 C47.5,105.9 47.4,106 47.5,106.2 C47.9,107.6 47.4,109 47,110.3 C46.9,110.6 46.9,111 46.9,111.3 C48.4,121 50,130.6 51.6,140.3 C51.6,140.6 51.7,140.9 51.9,141.2 C52.9,142.6 53.3,144.3 53.4,146 C53.4,146.5 53.6,147 53.6,147.5 C53.7,148.9 53.8,150.4 53.7,151.9 C53.5,153.8 53.9,155.6 54.1,157.5 C54.3,159.3 54.6,161.2 54.8,163 L54.8,163.5 C54.5,163.5 54.3,163.6 54,163.6 L21.3,163.6 C20.7,163.6 20.4,163.4 20.4,162.8 C20.3,160.3 20.3,157.8 20.2,155.3 C20.2,154.7 19.9,154.2 19.8,153.6 C19.6,152.6 19.2,151.7 19.1,150.7 C18.9,149.4 19,148.2 18.9,146.9 C18.9,146.5 18.9,146 19,145.5 C19.2,144.7 19.4,143.9 19.1,143.1 C19,142.8 19.1,142.4 19.2,142.2 C19.9,140.9 19.7,139.6 19.7,138.2 C19.6,133.8 19.5,129.4 19.5,125 C19.4,121.1 19.5,117.3 19.4,113.4 C19.4,113 19.2,112.6 19.1,112.2 C18.8,111.1 18.5,110.1 18.3,109 C18.1,108.2 18.1,107.4 18,106.6 C18,106.2 17.9,105.8 17.9,105.4 C17.9,105 17.1,104.3 16.6,104.5 C15.8,104.8 15.6,104.3 15.3,103.8 C14.8,102.9 15.1,101.9 15.6,101.1 C15.8,100.8 15.8,100.6 15.6,100.3 C15.1,99.7 14.6,99.1 13.6,98.9 C12.6,98.4 12.4,98.1 12,97.7 L12,97.7 Z" id="Shape"></path>
                        </g>
                    </g>
                    <g id="b9LFMa.tif_9_" transform="translate(122.000000, 33.000000)" fill="#A02140">
                        <path d="M78.4,46.9 L84.1,46.9 C85.5,46.9 86.1,47.4 86.5,48.7 C88.5,54.7 89.8,61.1 92.8,66.6 C94.9,70.6 94.4,74.3 94.5,78.1 C94.6,93.7 94.5,109.4 94.5,125 L94.5,128.1 L91.6,128.1 C86.3,128.1 80.9,128 75.6,128.2 C73.5,128.3 73.1,127.6 73.1,125.8 C73.1,115.6 72.8,105.4 73.2,95.2 C73.6,83 64.1,74.2 51.8,72.7 C42.9,71.6 34.8,73.7 28.4,79.9 C24.4,83.7 22.4,88.3 22.4,93.8 L22.4,125.1 L22.4,128.2 L19.5,128.2 C14.1,128.2 8.8,128.1 3.4,128.3 C1.2,128.4 0.9,127.6 0.9,125.9 C0.9,107.5 0.9,89.1 1,70.7 C1,69.8 1.7,69 2.2,68.1 C2.5,67.5 2.9,66.8 3.1,66.2 C5,60.7 7,55.1 8.8,49.6 C9.4,47.7 10.3,46.9 12.5,47 C17.7,47.1 17.2,47.8 17.2,42.6 L17.2,29.1 C17.2,27.4 17.6,26.2 19.7,26.6 C21.5,26.9 22.3,26 23.1,24.6 C26.4,18 30.9,12.5 37.7,8.8 C38.5,8.4 39.1,6.9 39.1,5.9 C39.3,1.70530257e-13 39.2,1.70530257e-13 45.4,1.70530257e-13 C48.1,1.70530257e-13 50.7,0.1 53.4,1.70530257e-13 C54.9,1.70530257e-13 55.8,0.3 55.5,2 C54.9,5.6 55.6,8.1 59.8,10.1 C65.9,13 69.5,18.6 72.5,24.4 C72.9,25.2 73.3,26 73.7,26.7 C78.5,26.9 78.5,26.9 78.5,31.4 C78.4,36.4 78.4,41.7 78.4,46.9 L78.4,46.9 Z" id="Shape"></path>
                    </g>
                    <path d="M337,123.9 C337,123.9 333.3,116.4 332.5,114.6 C331.6,112.7 329.8,107.1 329.9,104 C330,100.8 330.7,98.7 330.8,98.4 C330.9,98.1 331.2,97.5 331.2,97.5 C331.2,97.5 330.9,93.7 331.7,91.4 C332.5,89 333.5,87.3 334.1,86.6 C334.7,85.9 335.8,84.9 335.8,84.9 L336.4,84.3 C336.4,84.3 336.9,84.2 336.8,83.9 C336.7,83.6 336.1,83.1 335.3,82.3 C334.6,81.6 334.1,80.8 333.5,79.8 C332.9,78.8 332,77.3 331.9,77.3 C331.7,77.2 331.5,76.5 330.7,76.6 C329.9,76.7 328.6,77.1 327.5,77.9 C326.4,78.7 324.9,79.8 324.3,80.2 C323.7,80.6 322.5,81.3 321.5,81.6 C320.6,81.9 319.4,82.2 318.4,82.3 C317.4,82.4 316.4,82.2 316,82.3 C315.6,82.4 314.6,82 314.3,81.8 C314.1,81.6 313.3,81 313.4,80.1 C313.5,79.2 313.9,78.6 313.9,78.6 C313.9,78.6 313.7,78.1 314.1,77.1 C314.5,76.1 315.2,74.4 316.6,72 C318,69.6 319.8,67.4 320.7,66.3 C321.5,65.2 322.5,64.2 323.1,63.8 C323.7,63.4 324.4,62.8 324.4,62.8 C324.4,62.8 324.3,61.8 324.4,61.6 C324.5,61.4 325,60.9 325,60.4 C325.1,59.9 324.7,59.2 325,58.3 C325.3,57.5 325.5,57.1 325.9,56.7 C326.2,56.4 326.6,56.2 326.6,56.2 C326.6,56.2 326.7,54.7 327.3,53.7 C327.9,52.7 329.2,51.2 329.7,50.8 C330.2,50.4 331.1,49.3 332.5,48.7 C333.9,48.1 337.7,47.4 339.3,49.4 C339.3,49.4 340.6,51.2 341.1,53.1 C341.6,55 341.3,53.8 341.3,53.8 L341.7,54.3 C341.7,54.3 341.2,54.5 341.2,54.9 C341.2,55.2 341.2,55.4 341.5,55.7 C341.8,56 342.3,56.5 342.5,56.8 C342.7,57.1 342.9,57.6 342.5,57.8 C342.1,58 341.9,58.2 341.9,58.2 L342,58.6 C342,58.6 342.3,58.8 342.4,59 C342.4,59.2 342,59.1 342,59.3 C342,59.5 341.9,59.4 342.2,59.7 C342.5,60 342,60.2 342,60.2 L341.9,60.3 C341.9,60.3 342,60.5 342,60.7 C342.1,60.9 342.1,60.9 342.1,61.4 C342.1,61.9 341.4,62.3 340.8,62.5 C340.3,62.7 340,62.8 340,63.1 C340,63.4 340.1,63.6 340.8,63.6 C341.5,63.6 342.6,63.9 343.2,63.9 C343.7,63.9 345.5,62.3 347.2,61.7 C348.9,61.1 350.2,60.9 351,60.6 C351.8,60.3 353.5,58.8 354.8,58.2 C356.1,57.6 357.7,56.6 358.4,56.6 C359.1,56.6 359.8,55.6 360.4,55.1 C361,54.7 363.5,52.9 364.6,52.1 C365.6,51.3 370.2,47.6 370.2,47.6 C370.2,47.6 370.7,47.3 371,47.1 C371.3,46.9 371.6,46.7 371.8,45.8 C372,44.8 372.3,43.2 372.8,42.4 C373.3,41.6 374.4,40.9 374.4,40.9 C374.4,40.9 373.2,35 368.9,30.1 C368.9,30.1 364.4,25.4 362.3,24.1 C360.2,22.8 357.4,21 354,20.1 C350.6,19.2 346.1,18.3 344.5,18.1 C344.5,18.1 342.7,18 342.5,16.5 C342.5,16.5 342.4,15.8 342.9,15.4 C342.9,15.4 343.4,14.9 344.1,15.1 C344.1,15.1 344.6,15.3 344.4,16 C344.4,16 344.1,16.3 343.8,16.3 C343.5,16.4 343.5,16.6 343.6,16.6 C343.7,16.7 344.2,17 344.9,17.1 C345.6,17.2 351.5,17.7 354.8,18.8 C358.1,19.9 362.2,21.2 365.9,24.4 C369.7,27.6 371.6,30.1 373.4,33 C375.2,35.9 376.5,40.5 376.6,40.7 C376.7,40.9 377.2,41 377.5,41.1 C377.8,41.1 378.1,41 378.3,41.1 C378.4,41.1 378.8,41.2 378.9,41.7 C378.9,42.2 378.7,42.4 378.7,42.4 L378.7,42.7 L378.9,43 L379.1,43.4 L379.1,44.1 L379.1,44.3 L378.9,44.6 L378.9,44.8 L379,45.1 C379,45.1 379.1,45.6 378.9,45.9 C378.7,46.2 378.7,46.4 378.7,46.4 L378.7,46.7 C378.7,46.7 378.8,46.8 378.7,47.1 C378.6,47.4 378.3,47.6 378.3,47.6 L378,47.7 L377.8,47.8 C377.8,47.8 378.3,54.2 378,56.6 C377.7,59 377.4,65 375.6,69.8 C373.8,74.7 372.4,77.7 371.2,79.7 C370.1,81.7 367.2,86.5 366.9,87 C366.6,87.5 365.6,88.8 365.6,88.8 L365.3,89.3 L365.2,89.7 L365.2,89.9 L365.3,90.1 L365.4,90.2 L365.5,90.3 L365.6,90.3 L365.7,90.2 L365.7,90.1 L365.8,89.9 L365.9,89.8 L366.1,89.8 L366.3,89.9 L366.4,90.2 L366.3,90.5 L366.1,90.8 C366.1,90.8 365.8,91.1 365.5,91 C365.5,91 365.1,91 364.8,90.6 C364.8,90.6 364.5,90 364.7,89.3 C364.9,88.6 368.8,82.4 370.5,78.6 C372.2,74.7 374.2,69.8 374.9,65.8 C375.6,61.8 376.1,57.2 376.2,55.7 C376.3,54.2 375.9,48.8 375.9,48.8 C375.9,48.8 374.3,49.3 374,49.9 C373.7,50.5 372.7,51.8 371.7,53 C370.7,54.1 369.9,55.2 368.8,56.1 C367.7,57 367.2,57.2 367.2,57.2 C367.2,57.2 365.5,58.2 364.9,58.8 C364.3,59.4 362.8,60.3 362.8,60.3 L361.9,60.5 C361.9,60.5 359.2,62.8 358.1,63.8 C357,64.7 355.2,65.8 354.6,65.9 C354,66.1 352.1,66.7 351.4,67.4 C350.7,68.1 349.3,69.5 349.2,69.8 C349.1,70.1 349,70.8 348.8,71.3 C348.6,71.8 348.2,72.1 348.5,72.6 C348.8,73.1 349.6,75.2 349.6,76.2 C349.7,77.2 350.2,78.5 349.7,79.8 C349.2,81.1 348.4,81.7 348.4,83 C348.4,84.3 349.2,84.8 349.9,86.1 C350.6,87.3 351.6,89.8 352.3,93.4 C352.3,93.4 353,101.4 351.6,105 C350.2,108.6 347.6,112.1 346.8,113.6 C346,115.1 345.6,115.1 345.6,116.1 C345.7,117.1 345.4,116.8 346.7,117.4 C348,118 348.8,118.6 349.5,120.1 C350.2,121.6 350,122.9 350.5,123.4 C351,123.8 351,123.7 351.8,124 C352.5,124.2 353.5,124.6 353.7,126 C353.9,127.4 353.9,127.8 354.1,129.4 C354.4,131.1 354.5,131.7 354.8,132.7 C355,133.8 355,136 354,136.8 C353.1,137.6 351.8,138.6 351.8,138.6 C351.8,138.6 351.2,141 352.2,142.2 C353.2,143.5 353.9,143.9 354,144.9 C354.2,145.9 354.4,147.3 354.7,147.9 C354.9,148.5 355.8,149 356.5,149.2 C357.2,149.4 358.4,149.6 359.6,149.7 C360.8,149.8 363.3,149.8 364.6,150.9 C366,152 366.6,153.8 366.6,153.8 C366.6,153.8 368.6,154.1 369.7,154.9 C370.8,155.7 371.9,157.4 372.2,158.3 C372.5,159.2 375.1,163.6 375.1,163.6 L313.1,163.6 C313.1,163.6 312.4,160.7 313.1,160.5 C313.8,160.2 315.9,160 316,159.5 C316.1,159 315.9,157.5 317.2,156.7 C318.5,155.9 320.1,155.9 320.6,155.3 C321,154.7 320.8,154.3 321.9,153 C323,151.7 324.8,151.1 324.8,151.1 L325.2,150.8 L325.1,149.9 L325.2,149 L325.8,148.2 L326.1,147 L326.4,145.3 L327.5,144.4 L328.7,144 L329.5,142 C329.5,142 329.9,139.2 330.3,138.6 C330.7,138 331.4,137.2 331.4,137.2 L331.4,136.3 L331.5,135.5 L331.6,134.5 C331.6,134.5 332.3,133.1 333,131.7 C333.7,130.3 333,127.9 333.5,127.5 C334,127.1 333.3,126.7 333.3,126.7 L334,125.5 L335.2,125.1 L335.7,124.4 L336.5,123.7 L337,123.9 L337,123.9 Z" id="Shape" fill="#A02140"></path>
                    <g transform="translate(221.000000, 73.000000)">
                        <rect id="Rectangle-path" fill="#000000" x="0.3" y="69.8" width="122.6" height="20.9"></rect>
                        <rect id="Rectangle-path" fill="#000000" x="3" y="53.9" width="117.2" height="16.2"></rect>
                        <g transform="translate(2.000000, 0.000000)" id="Shape" fill="#000000">
                            <path d="M118.9,53.9 L57.1,53.9 L56.9,47.4 L56.5,33.6 L56.1,33.6 L55.7,47.4 L55.5,53.8 L1.13686838e-13,53.8 C0.5,52.3 3.7,43.7 3.7,43.7 L14,41.7 C14.5,40.7 15.8,39.1 19.4,39.1 C23,39 25.2,41.9 25.2,41.9 L28.5,41.8 L28.5,42.6 L31.3,42.8 L31.3,44.5 L35.9,44.5 L35.9,30.2 C35.9,30.2 36.9,29.1 38.3,30.2 C39.7,31.3 38.9,31.5 38.9,31.5 L42,31.3 C43.5,19.1 53.2,20.7 53.2,20.7 L53.6,16.3 L55.3,16.3 L55.3,10.1 L56.7,10.1 L56.5,5.2 L53.1,0.6 L58.2,3.2 L63.3,0.5 L59.8,5.4 L59.4,9.8 L60.5,10 L61,16.4 L63.4,16.6 L63.6,20.8 C72,21.4 74.4,27.4 75.1,31 L78.4,30.9 C78.4,30.9 79.9,27.2 81.4,29.7 L81.4,44.6 L83.8,44.6 L83.8,42.9 L86.9,42.7 L86.9,41.9 L90.6,42 C90.6,42 93,39.2 97,39.2 C101,39.3 102.5,40.8 103,41.8 L114.4,43.8 C114.7,43.7 118.3,52.4 118.9,53.9 L118.9,53.9 Z"></path>
                            <path d="M57.1,53.9 L55.6,53.9 L55.8,47.5 L56.2,33.7 L56.6,33.7 L57,47.5 L57.1,53.9 L57.1,53.9 Z"></path>
                            <path d="M57.1,53.9 L55.6,53.9 L55.8,47.5 L56.2,33.7 L56.6,33.7 L57,47.5 L57.1,53.9 L57.1,53.9 Z"></path>
                        </g>
                        <path d="M58.9,47.4 L57.8,47.4 L58.2,33.6 L58.6,33.6 L58.9,47.4 L58.9,47.4 Z" id="Shape" fill="#000000"></path>
                        <path d="M61.6,43.7 C53,43.7 46,50.3 46,58.5 L46,91 L77.2,91 L77.2,58.5 C77.2,50.4 70.3,43.7 61.6,43.7 L61.6,43.7 Z" id="Shape" stroke="#FFFFFF" stroke-width="4.5818" fill="#000000"></path>
                        <rect id="Rectangle-path" fill="#FFFFFF" x="80.3" y="69.6" width="41" height="1"></rect>
                        <rect id="Rectangle-path" fill="#FFFFFF" x="77.4" y="53.9" width="43" height="1"></rect>
                        <rect id="Rectangle-path" fill="#FFFFFF" x="3" y="53.4" width="43" height="1"></rect>
                        <rect id="Rectangle-path" fill="#FFFFFF" x="3" y="69.1" width="39.9" height="1"></rect>
                        <rect id="Rectangle-path" stroke="#FFFFFF" stroke-width="1.5273" fill="#000000" x="100.3" y="58" width="7.8" height="11.5"></rect>
                        <rect id="Rectangle-path" stroke="#FFFFFF" stroke-width="1.5273" fill="#000000" x="88.1" y="58" width="7.8" height="11.5"></rect>
                        <rect id="Rectangle-path" stroke="#FFFFFF" stroke-width="1.5273" fill="#000000" x="28.2" y="54.8" width="8.4" height="12.5"></rect>
                        <rect id="Rectangle-path" stroke="#FFFFFF" stroke-width="1.5273" fill="#000000" x="14.4" y="54.8" width="8.4" height="12.5"></rect>
                        <path d="M108.8,76.7 C106.3,76.7 104.4,78.6 104.4,80.9 L104.4,90.2 L113.3,90.2 L113.3,80.9 C113.2,78.6 111.2,76.7 108.8,76.7 L108.8,76.7 Z" id="Shape" stroke="#FFFFFF" stroke-width="1.5273" fill="#000000"></path>
                        <path d="M95.3,76.7 C92.9,76.7 90.9,78.6 90.9,80.9 L90.9,90.2 L99.8,90.2 L99.8,80.9 C99.7,78.6 97.7,76.7 95.3,76.7 L95.3,76.7 Z" id="Shape" stroke="#FFFFFF" stroke-width="1.5273" fill="#000000"></path>
                        <path d="M27.9,76.7 C25.5,76.7 23.5,78.6 23.5,80.9 L23.5,90.2 L32.4,90.2 L32.4,80.9 C32.3,78.6 30.3,76.7 27.9,76.7 L27.9,76.7 Z" id="Shape" stroke="#FFFFFF" stroke-width="1.5273" fill="#000000"></path>
                        <path d="M14.4,76.7 C11.9,76.7 10,78.6 10,80.9 L10,90.2 L18.9,90.2 L18.9,80.9 C18.9,78.6 16.9,76.7 14.4,76.7 L14.4,76.7 Z" id="Shape" stroke="#FFFFFF" stroke-width="1.5273" fill="#000000"></path>
                        <path d="M50,59.3 L72.7,59.3 C72.7,59.3 70.3,50.4 61.7,49.6 C53.1,48.8 50,59.3 50,59.3 L50,59.3 Z" id="Shape" fill="#FFFFFF"></path>
                        <path d="M95.3,43.7 L102.6,43.7 C102.6,43.7 101.8,40.8 99.1,40.6 C96.3,40.3 95.3,43.7 95.3,43.7 L95.3,43.7 Z" id="Shape" fill="#FFFFFF"></path>
                        <path d="M17.2,44.5 L24.5,44.5 C24.5,44.5 23.7,41.7 21,41.4 C18.2,41.1 17.2,44.5 17.2,44.5 L17.2,44.5 Z" id="Shape" fill="#FFFFFF"></path>
                    </g>
                    <g transform="translate(53.000000, 111.000000)">
                        <path id="Shape" d="M0,21.7 L1.3,21.9 L56.2,21.9 L57.1,21.7 L0,21.7 Z"></path>
                        <rect id="Rectangle-path" fill="#000000" x="134.8" y="0.4" width="39.1" height="52.8"></rect>
                        <path d="M141.6,18.6 L148.2,14.8 L148.1,7.2 L141.4,3.4 L134.8,7.2 L134.8,14.8 L141.6,18.6 L141.6,18.6 Z M144.5,22.8 L148.7,25.1 L152.8,22.7 L152.8,18 L148.6,15.7 L144.5,18.1 L144.5,22.8 L144.5,22.8 Z M155.4,3.8 L148.8,7.6 L148.8,15.2 L155.5,19 L162.1,15.2 L162.1,7.6 L155.4,3.8 L155.4,3.8 Z M150.7,25.6 L146.6,28 L146.6,32.7 L150.8,35.1 L154.9,32.7 L154.9,28 L150.7,25.6 L150.7,25.6 Z M138.6,29.8 L142.7,27.4 L142.7,22.7 L138.5,20.4 L134.4,22.8 L134.4,27.5 L138.6,29.8 L138.6,29.8 Z M140.7,31.2 L134.1,35 L134.1,42.6 L140.8,46.4 L147.4,42.6 L147.4,35 L140.7,31.2 L140.7,31.2 Z M164.3,4.1 L164.3,53.1 L168.3,53.1 L168.3,4.1 L164.3,4.1 L164.3,4.1 Z M156.7,52.9 L160.7,52.9 L160.7,19.4 L156.7,19.4 L156.7,52.9 L156.7,52.9 Z" id="Shape" fill="#FFFFFF"></path>
                    </g>
                    <g transform="translate(380.000000, 36.000000)" id="Shape" fill="#A02140">
                        <g transform="translate(17.000000, 35.000000)">
                            <path d="M38.3,25.5 L38,23.8 L15,20.1 L14.6,22 L38.3,25.5 Z"></path>
                            <path d="M40.5,35.9 L40.2,34.3 L12.8,30.6 L12.5,32.3 L40.5,35.9 Z"></path>
                            <path d="M33.7,3.4 L19.2,0.2 L18.9,1.4 L34,4.7 L33.7,3.4 Z"></path>
                            <path d="M41.7,41.3 L41.3,39.6 L11.7,35.9 L11.4,37.7 L41.7,41.3 Z"></path>
                            <path d="M39.4,30.6 L39.1,29.2 L13.9,25.5 L13.6,27 L39.4,30.6 Z"></path>
                            <path d="M37.2,20 L36.9,18.5 L16.1,14.9 L15.8,16.6 L37.2,20 Z"></path>
                            <path d="M42.9,47 L42.4,45 L10.6,41.2 L10.2,43.3 L42.9,47 Z"></path>
                            <path d="M36.1,14.8 L35.8,13.3 L17.2,9.7 L16.9,11.4 L36.1,14.8 Z"></path>
                            <path d="M34.8,8.5 L18.2,4.9 L17.9,6.2 L35,9.6 L34.8,8.5 Z"></path>
                            <path d="M48.4,73.3 L48,71.4 L5.1,67.5 L4.7,69.6 L48.4,73.3 Z"></path>
                            <path d="M49.7,79.6 L49.2,77 L4,73.1 L3.4,75.8 L49.7,79.6 Z"></path>
                            <path d="M43.9,52 L43.6,50.7 L9.4,46.9 L9.1,48.3 L43.9,52 Z"></path>
                            <path d="M2.7,79.4 L0,92 L52.1,90.8 L50.5,83.2 L2.7,79.4 Z"></path>
                            <path d="M44.9,56.9 L44.7,55.7 L8.4,51.9 L8.1,53.2 L44.9,56.9 Z"></path>
                            <path d="M47.2,67.7 L46.8,65.7 L6.3,61.8 L5.9,63.9 L47.2,67.7 Z"></path>
                            <path d="M46,62 L45.7,60.6 L7.4,56.7 L7.1,58.3 L46,62 Z"></path>
                        </g>
                        <g transform="translate(36.000000, 2.000000)">
                            <path d="M6.2,21 L6.1,20.5 L3.3,19.7 L4.5,26.4 L6.2,21 Z"></path>
                            <path d="M5.7,18.6 L4.4,12.8 L3.4,17.9 L5.7,18.6 Z"></path>
                            <path d="M9.2,10.4 L9.1,10 L5.4,8.2 L5.3,8.5 L7,16.2 L9.2,10.4 Z"></path>
                            <path d="M7.8,18.9 L7.9,19.3 L11.3,20.3 L9.9,13.5 L7.8,18.9 Z"></path>
                            <path d="M11.5,22.1 L8.4,21.2 L10.2,27.9 L11.5,22.1 Z"></path>
                            <path d="M2.2,23.5 L0.9,29.7 L3.4,30.3 L2.2,23.5 Z"></path>
                            <path d="M8.7,7.9 L7.1,0.2 L5.7,6.5 L8.7,7.9 Z"></path>
                            <path d="M7.2,23.7 L5.1,30.6 L9.3,31.6 L7.2,23.7 Z"></path>
                            <path d="M12.5,25.9 L11.1,32 L13.9,32.7 L12.5,25.9 Z"></path>
                        </g>
                        <path d="M30.5,9.5 L0.9,125 L13.4,127.8 L39,0.1 L30.5,9.5 L30.5,9.5 Z M27.5,28.1 L30.7,26.6 L30.3,29.7 L27.2,30.7 L27.5,28.1 L27.5,28.1 Z M31.1,33.7 L28,34.7 L28,34.5 L25.4,35.3 L25.7,32.7 L28.9,31.2 L28.8,31.8 L31.4,30.6 L31.1,33.7 L31.1,33.7 Z M32.5,23.4 L27.9,24.9 L28.3,21.3 L33.1,19.1 L32.5,23.4 L32.5,23.4 Z M28.2,19.8 L29.4,14.5 L34.7,9.8 L33.9,16.8 L28.2,19.8 L28.2,19.8 Z"></path>
                    </g>
                    <path d="M438.6,160.7 C436.8,160.5 435,160.6 433.2,160.7 C431.4,160.8 430.7,160 430.7,158.3 C430.8,155.5 430.5,152.7 430.8,150 C431.1,147.2 429.8,146.7 427.2,146.7 C422.3,146.8 417.4,146.7 412.5,146.8 C410.6,146.8 409.7,146.1 409.8,144.3 L409.8,135.5 C409.8,130 409.8,130.1 404,129.8 C401.6,129.7 400.8,130.5 400.8,132.7 C400.9,136.6 400.8,140.5 400.8,144.4 C400.8,146 400.1,146.9 398.3,146.9 C396.5,146.9 395.8,146 395.9,144.3 C396,141.2 395.9,138.1 395.9,135 C395.9,130 395.9,130 390.7,129.9 C387.3,129.8 387,130 387,133.3 L387,144.5 C387,146.2 386.1,146.9 384.4,146.9 C382.7,146.9 381.8,146.2 381.9,144.5 C382,142.9 381.9,141.3 381.9,139.7 C381.9,138.2 381.1,137.4 379.4,137.5 C377.3,137.6 375.3,137.7 373.2,137.5 C371,137.3 369.9,138 369.6,139.5 L366.4,139.5 L366.4,97.4 L364.8,97.4 L364.8,93.2 L362.8,93.2 L361.4,90.1 L359.8,90 L359.8,83 L358.7,83 L358.7,90 L356.2,89.9 L355.1,93.1 L353,93.1 L353,97.3 L351,97.3 L351,139.4 L346.8,139.4 L346.8,147.3 L341.3,147.3 L341.3,160.4 L341,160.4 C341,161.7 340.7,163 340,164.1 L417.9,164.1 C424.8,164.1 431.7,164.2 438.5,164 C439.3,164 440.1,162.8 440.9,162.2 C440.2,161.7 439.4,160.8 438.6,160.7 L438.6,160.7 Z" id="Shape" fill="#000000"></path>
                    <path id="Shape" d="M164.7,140.9 L165.6,141 L204.4,141 L205,140.9 L164.7,140.9 Z"></path>
                    <path d="M44.7,61.7 C44.7,61.7 43.9,62.9 43.6,62.8 C43.3,62.7 43.1,62.3 43.1,62.3 L41.4,62.3 L41.4,61.8 L44.7,61.8 L44.7,61.7 Z" id="Shape" fill="#FFFFFF"></path>
                    <path d="M19.5,84.8 C19.5,84.8 19.3,88.7 19.5,90.2 C19.7,91.8 20.3,93.4 20.3,93.4 C20.3,93.4 21,94.6 20.3,95.6 C19.7,96.6 18.1,98.1 18.1,98.1 L16.3,99.6 C16.3,99.6 15.1,100.5 15.5,99.6 C15.9,98.7 17.6,96.8 17.5,95.3 C17.4,93.8 18,88.8 18,88.8 C18,88.8 17.6,84 19.5,84.8 L19.5,84.8 Z" id="Shape" fill="#FFFFFF"></path>
                    <path d="M67,123.4 L67,121.3 L63.7,121.3 L63.7,115.9 L46.1,115.9 C45.9,115.5 45.8,115 45.7,114.4 C45.5,112.3 46.4,110.7 47.1,108.3 C47.8,106 51.6,98.9 51.6,98.9 C51.6,98.9 58.9,99.2 59.2,99.4 C59.4,99.6 60.5,101.3 60.5,101.3 L60.4,105.1 C60.4,105.1 59.7,106 59.5,106.4 C59.3,106.9 59.1,108.4 59.1,108.4 L56.8,108.7 L56.7,112.5 L58.2,112.5 L59.7,111 C59.7,111 62.2,108.3 62.6,108 C62.9,107.6 62.8,104.2 62.8,102.8 C62.8,101.4 63.2,99.9 63,99.1 C62.8,98.3 61.6,97.5 61.6,97.5 L60.1,96.9 C60.1,96.9 58.4,95.7 58,95.4 C57.6,95 58.2,94 58.2,93.3 C58.2,92.7 59.2,91.7 59.5,90.5 C59.8,89.3 59.3,88.7 59.3,87.3 C59.3,85.9 61.4,80.6 61.6,80.2 C61.9,79.8 62.4,80.3 62.7,80.4 C63.1,80.5 63.7,81.4 63.7,81.6 C63.7,81.8 64,82.4 63.9,82.9 C63.8,83.3 64.1,85.6 64.5,86.2 C64.9,86.9 65.5,86.6 65.5,86.6 L65.5,85.6 L65.7,85.2 L66,85.5 L66.3,86.1 C66.3,86.1 66.6,86.4 66.8,86.4 C67.1,86.4 67.6,86.4 67.8,86.1 C68.1,85.8 68.6,85 68.8,83.1 C69,81.2 68.9,78.5 68.9,77.9 C68.9,77.3 69.3,77.3 69.2,75.2 C69.1,73.1 68.3,71.1 68.3,71.1 C68.5,69.8 68.3,68.6 68.3,68.6 L66.3,70.3 C66.3,70.3 63.7,69.7 62.3,69.6 C60.9,69.5 59.3,70.2 57.8,70.4 C56.3,70.6 53.5,72.6 52.2,73.5 C52,73.7 51.7,73.9 51.4,74.2 L50.4,72.7 L51.3,72 L52.1,70.3 L50.6,70.9 L48.8,71.2 L47.4,70.8 C47.4,70.8 45.2,69.7 44.6,69.5 C44,69.3 44.1,68.3 43.8,67.1 C43.5,65.9 42.8,63.8 42.8,63.8 L41.7,63.2 L41.8,62 C41.8,62 42.8,61.6 43,61.2 C43.2,60.7 42.9,59.8 43,59.5 C43.1,59.2 43,58.3 43.1,58 C43.2,57.7 43.9,56.8 43.9,56.8 L43.7,56.3 C43.7,56.3 42.1,55.9 40.4,55.5 C38.6,55.2 37.7,57.7 37.7,57.7 L37.7,60.7 L36.8,61.2 L35.7,62.7 L35.1,64 L35.1,65.5 C35.1,65.5 35.4,66.5 35.2,67.7 C34.9,68.9 33.4,72.1 32.7,72.9 C32,73.7 29.1,74.7 25.8,76.6 C22.5,78.5 19.4,81 17.2,83.5 C14.9,86 14.9,88.9 14.7,90.5 C14.5,92.2 14,93.5 12,96 C10,98.5 7.7,105.6 6.6,107.7 C5.5,109.7 6.6,112.1 6.6,112.1 L7.6,111.4 L7.6,112.5 L8.8,112.7 L8.8,114.3 L9.9,113.7 L10.7,114.5 L11.4,112.2 C11.4,112.2 11.5,113.5 11.8,114.1 C12.1,114.6 13.8,114.5 13.8,114.5 L13.8,115.9 L12,115.9 L12,121.3 L8.7,121.3 L8.7,123.4 L0.5,123.4 L0.5,162.3 L75.2,162.3 L75.2,123.4 L67,123.4 L67,123.4 Z M46.5,75.6 L47.4,75 L48.6,74.3 L49.9,73.3 L51,74.4 L51.2,74.7 C49.8,76 48.2,77.8 47.7,78.1 C47.1,78.6 45.7,78.5 45.7,78.5 L46.5,75.6 L46.5,75.6 Z M28.7,115.9 L16.4,115.9 C15.9,115.2 15.3,114.4 15,113.9 C14.3,112.8 15.3,108.1 15.9,106 C16.5,104 19.5,101.9 20.1,101.4 C20.8,100.8 22.8,100.1 22.8,100.1 L22.6,101.5 L21.9,102.2 C21.9,102.2 21,103.8 21.1,104.6 C21.2,105.4 23.1,106.5 23.1,106.5 C23.1,106.5 25.5,107.9 26.6,108.7 C27.7,109.5 29.4,111.6 29.5,112 C29.7,112.4 29.1,114.7 28.7,115.9 L28.7,115.9 Z M43.6,110.8 C43.1,112.2 42.4,114.5 42.6,115.9 L32.2,115.9 C32.2,114.7 31.9,109.8 31.6,109.1 C31.2,108.3 25.4,104.6 25.4,104.6 L25.4,103 L26.1,102.4 C26.1,102.4 28.2,100.2 29,99.3 C29.7,98.4 31.4,95.5 31.4,95.5 C31.4,95.5 34.8,97.6 35.6,98 C36.4,98.4 38.2,98.6 38.5,98.6 L46.6,98.6 L46.2,101 L45.4,105.4 C45.3,105.4 44.3,109.2 43.6,110.8 L43.6,110.8 Z" id="Shape" fill="#A02140"></path>
                    <g transform="translate(62.000000, 74.000000)">
                        <path id="Shape" d="M71.4,46.6 L70.3,46.9 L2.6,46.9 L0.9,46.6 L71.4,46.6 Z"></path>
                        <path d="M0.9,46.6 L2.6,46.8 L70.4,46.8 L71.5,46.8 L71.5,46.5 L0.9,46.5 L0.9,46.6 Z M70.7,41.2 C70.7,40.8 70.4,40.5 70.1,40.3 C70.4,40.5 70.6,40.8 70.7,41.2 L70.7,41.2 Z M69.7,40.2 L69.5,40.2 L69.3,40.2 L69.5,40.2 C69.5,40.1 69.6,40.1 69.7,40.2 L69.7,40.2 Z M68.2,41.2 C68.3,40.9 68.4,40.6 68.6,40.5 C68.4,40.6 68.3,40.9 68.2,41.2 L68.2,41.2 Z M66.1,40.1 C66.7,40.1 67.2,40.5 67.3,41.1 C67.2,40.5 66.7,40.1 66.1,40.1 C65.5,40.1 64.9,40.5 64.9,41.1 C64.9,40.5 65.4,40.1 66.1,40.1 L66.1,40.1 Z M62.5,40.1 C63.1,40.1 63.6,40.5 63.8,41.1 C63.7,40.5 63.2,40.1 62.5,40.1 C61.9,40.1 61.4,40.5 61.3,41.1 C61.4,40.5 61.9,40.1 62.5,40.1 L62.5,40.1 Z M59.1,40.3 C59.7,40.3 60.2,40.7 60.3,41.3 C60.2,40.7 59.7,40.2 59.1,40.3 C58.5,40.3 58,40.7 57.9,41.3 C57.9,40.7 58.4,40.3 59.1,40.3 L59.1,40.3 Z M55.8,40.3 C56.4,40.3 56.9,40.7 57,41.3 C57,40.7 56.4,40.2 55.8,40.3 C55.2,40.3 54.6,40.7 54.6,41.3 C54.7,40.7 55.2,40.3 55.8,40.3 L55.8,40.3 Z M53.6,41.3 C53.6,40.9 53.3,40.6 53,40.4 C53.3,40.6 53.6,40.9 53.6,41.3 L53.6,41.3 Z M53,40.4 C52.8,40.3 52.6,40.2 52.4,40.2 C52.2,40.2 52,40.3 51.8,40.4 C52,40.3 52.2,40.3 52.4,40.3 C52.7,40.2 52.9,40.3 53,40.4 L53,40.4 Z M51.2,41.3 C51.2,41.1 51.3,40.9 51.5,40.7 C51.3,40.8 51.2,41 51.2,41.3 L51.2,41.3 Z M49.5,40.4 C49.8,40.6 50,40.9 50.1,41.3 C50.1,40.9 49.8,40.6 49.5,40.4 L49.5,40.4 Z M48.2,40.4 C48.4,40.3 48.6,40.3 48.8,40.3 C49,40.3 49.2,40.4 49.4,40.4 C49.2,40.3 49,40.2 48.8,40.2 C48.6,40.2 48.4,40.3 48.2,40.4 L48.2,40.4 Z M47.6,41.3 C47.7,40.9 47.9,40.6 48.2,40.4 C47.9,40.6 47.7,40.9 47.6,41.3 L47.6,41.3 Z M47.6,37.7 L47.6,37.7 L50,37.8 L50,28.9 L39.2,28.9 C38.5,27.9 37.4,27.2 36.3,27.2 C35.1,27.2 34.1,27.9 33.4,28.9 L25,28.9 L25,28.4 L22.7,28.4 L22.7,37.7 L47.6,37.7 L47.6,37.7 Z M47,41.2 C47,40.8 46.7,40.5 46.4,40.3 C46.7,40.5 46.9,40.8 47,41.2 L47,41.2 Z M45.8,40.2 L46,40.2 L45.8,40.2 L45.6,40.2 L45.8,40.2 L45.8,40.2 Z M44.9,40.5 L45.5,40.2 C45.3,40.2 45.1,40.3 44.9,40.5 L44.9,40.5 Z M44.9,40.5 C44.7,40.7 44.5,40.9 44.5,41.2 C44.6,40.9 44.7,40.7 44.9,40.5 L44.9,40.5 Z M43.3,40.5 C43.5,40.7 43.7,40.9 43.7,41.2 C43.7,40.9 43.5,40.6 43.3,40.5 L43.3,40.5 Z M43.3,40.5 C43.1,40.3 42.9,40.3 42.7,40.2 C42.9,40.2 43.1,40.3 43.3,40.5 L43.3,40.5 Z M42.5,40.2 L42.7,40.2 L42.5,40.2 L42.3,40.2 L42.5,40.2 L42.5,40.2 Z M41.9,40.3 C41.6,40.5 41.3,40.8 41.3,41.2 C41.3,40.8 41.5,40.5 41.9,40.3 L41.9,40.3 Z M40.3,41.2 C40.3,40.8 40,40.5 39.7,40.3 C40,40.5 40.2,40.8 40.3,41.2 L40.3,41.2 Z M39.1,40.1 L39.3,40.1 L39.1,40.1 L38.9,40.1 C38.9,40.1 39,40.1 39.1,40.1 L39.1,40.1 Z M38.4,40.3 C38.1,40.5 37.8,40.8 37.8,41.2 C37.9,40.8 38.1,40.5 38.4,40.3 L38.4,40.3 Z M36.8,41.2 C36.8,40.8 36.5,40.5 36.2,40.3 C36.5,40.5 36.7,40.8 36.8,41.2 L36.8,41.2 Z M35.5,40.1 L35.7,40.1 L35.5,40.1 L35.3,40.1 L35.5,40.1 L35.5,40.1 Z M34.9,40.3 C34.6,40.5 34.3,40.8 34.3,41.2 C34.4,40.8 34.6,40.5 34.9,40.3 L34.9,40.3 Z M32.8,40.4 C33,40.6 33.1,40.8 33.2,41.1 C33.2,40.9 33,40.6 32.8,40.4 L32.8,40.4 Z M31.9,40.1 L32.1,40.1 L31.9,40.1 L31.7,40.1 L31.9,40.1 L31.9,40.1 Z M31.3,40.3 C31,40.5 30.8,40.8 30.7,41.2 C30.8,40.8 31,40.5 31.3,40.3 L31.3,40.3 Z M29.8,41.2 C29.8,40.8 29.5,40.5 29.2,40.3 C29.5,40.5 29.7,40.8 29.8,41.2 L29.8,41.2 Z M28.5,40.1 L28.7,40.1 L28.5,40.1 L28.3,40.1 L28.5,40.1 L28.5,40.1 Z M27.9,40.3 C27.6,40.5 27.3,40.8 27.3,41.2 C27.4,40.8 27.6,40.5 27.9,40.3 L27.9,40.3 Z M26.6,41.2 C26.6,40.8 26.3,40.5 26,40.3 C26.3,40.5 26.5,40.8 26.6,41.2 L26.6,41.2 Z M25.4,40.1 L25.6,40.1 L25.4,40.1 L25.2,40.1 C25.2,40.1 25.3,40.1 25.4,40.1 L25.4,40.1 Z M24.1,41.2 C24.1,41 24.2,40.8 24.4,40.6 C24.2,40.7 24.2,40.9 24.1,41.2 L24.1,41.2 Z M23.1,41.2 C23.1,40.8 22.8,40.5 22.5,40.3 C22.8,40.5 23.1,40.8 23.1,41.2 L23.1,41.2 Z M22.1,40.2 L21.9,40.2 L21.7,40.2 L21.9,40.2 C22,40.1 22,40.1 22.1,40.2 L22.1,40.2 Z M21.3,40.3 C21,40.5 20.7,40.8 20.7,41.2 C20.7,40.8 20.9,40.5 21.3,40.3 L21.3,40.3 Z M19.6,41.2 C19.6,40.8 19.3,40.5 19,40.3 C19.3,40.5 19.5,40.8 19.6,41.2 L19.6,41.2 Z M18.6,40.2 L18.4,40.2 L18.2,40.2 L18.4,40.2 L18.6,40.2 L18.6,40.2 Z M17.7,40.3 C17.4,40.5 17.1,40.8 17.1,41.2 C17.2,40.8 17.4,40.5 17.7,40.3 L17.7,40.3 Z M15.6,41.2 C15.6,40.8 15.3,40.5 15,40.3 C15.3,40.5 15.5,40.8 15.6,41.2 L15.6,41.2 Z M14.6,40.2 L14.4,40.2 L14.2,40.2 L14.4,40.2 L14.6,40.2 L14.6,40.2 Z M13.7,40.3 C13.4,40.5 13.1,40.8 13.1,41.2 C13.2,40.8 13.4,40.5 13.7,40.3 L13.7,40.3 Z M12.1,41.2 C12.1,40.8 11.8,40.5 11.5,40.3 C11.8,40.5 12,40.8 12.1,41.2 L12.1,41.2 Z M11.1,40.2 L10.9,40.2 L10.7,40.2 L10.9,40.2 L11.1,40.2 L11.1,40.2 Z M10.3,40.3 C9.9,40.5 9.7,40.8 9.6,41.2 C9.7,40.8 9.9,40.5 10.3,40.3 L10.3,40.3 Z M8.6,41 C8.6,40.6 8.3,40.3 8,40.1 C8.4,40.3 8.6,40.6 8.6,41 L8.6,41 Z M7.6,40 L7.4,40 L7.2,40 L7.4,40 L7.6,40 L7.6,40 Z M6.8,40.1 C6.5,40.3 6.3,40.6 6.2,41 C6.2,40.6 6.5,40.3 6.8,40.1 L6.8,40.1 Z M3.9,40.1 C4.5,40.1 5,40.5 5.2,41.1 C5,40.5 4.5,40 3.9,40.1 C3.3,40.1 2.7,40.5 2.7,41.1 C2.8,40.5 3.3,40.1 3.9,40.1 L3.9,40.1 Z" id="Shape" fill="#000000"></path>
                        <path d="M71,65.5 L70.6,65.5 L70.6,66.7 L70.2,66.7 L70.2,68 L70.1,68 L70.1,87.1 L68.3,87.1 L68.3,68 L68.2,68 L68.2,66.7 L67.8,66.7 L67.8,65.5 L67.6,65.5 L67.6,66.7 L67.2,66.7 L67.2,68 L67.1,68 L67.1,87.1 L65.3,87.1 L65.3,68 L65.2,68 L65.2,66.7 L64.8,66.7 L64.8,65.4 L64.3,65.4 L64.2,65.1 C64.5,63.8 63.9,63.9 63.9,63.9 C64.3,62.6 63.2,62.1 63,62 C64.5,50.4 56.7,51.1 56.7,51.1 C48.2,50.8 50.4,62.8 50.4,62.8 C49.2,62.9 49.6,64.7 49.6,64.7 C49,64.7 49.2,65.6 49.2,65.6 L48.8,65.6 L48.8,66.8 L48.4,66.8 L48.4,68.1 L48.4,87.2 L46.6,87.2 L46.6,68.1 L46.4,68.1 L46.4,67 L46,67 L46,65.7 L45.5,65.7 C45.6,64.9 45.3,64.8 45.2,64.8 L45.2,64.4 C45.2,62.6 44.1,62.4 44.1,62.4 L44.1,62 C46.2,49.2 36.5,49.7 36.5,49.7 C26.6,49.7 28.8,62.6 28.8,62.6 C27.1,62.7 27.7,64.8 27.7,64.8 C27.1,64.8 27.3,65.8 27.3,65.8 L26.8,65.8 L26.8,66.8 L26.4,66.8 L26.4,68.1 L26.4,87.2 L24.6,87.2 L24.6,68.1 L24.4,68.1 L24.4,66.8 L24,66.8 L24,65.7 L23.6,65.7 C23.6,65 23.1,65 23.1,65 C23.5,63 22.3,63.2 22.3,63.2 C24.1,50 16,51 16,51 C7.4,51.3 9.5,63.2 9.5,63.2 C7.9,63.5 8.6,65.2 8.6,65.2 C7.9,65.1 8,65.7 8,65.7 L7.9,65.7 L7.9,66.9 L7.5,66.9 L7.5,68.2 L7.4,68.2 L7.4,87.3 L5.6,87.3 L5.6,68.2 L5.5,68.2 L5.5,66.9 L5.1,66.9 L5.1,65.7 L4.7,65.7 L4.7,66.9 L4.3,66.9 L4.3,68.2 L4.2,68.2 L4.2,87.2 L2.4,87.2 L2.4,68.2 L2.3,68.2 L2.3,66.9 L2,66.9 L2,65.6 L1.6,65.6 L2.5,47 L0.8,47 L0.8,46.7 L2.5,46.9 L70.3,46.9 L71,65.5 L71,65.5 Z" id="Shape" fill="#000000"></path>
                        <path id="Shape" fill="#000000" d="M45.2,64.7 C45.2,64.8 45.2,65.7 45.2,64.7 L45.2,64.7 L45.2,64.7 Z"></path>
                        <path d="M5.2,41.3 L5.2,41.3 C5.2,42 4.6,42.5 3.9,42.5 C3.2,42.5 2.7,42 2.6,41.3 L2.6,41.2 L2.6,41 C2.7,40.4 3.2,39.9 3.8,39.9 C4.4,39.9 5,40.4 5.1,41 C5.2,41.1 5.2,41.2 5.2,41.3 L5.2,41.3 Z" id="Shape" fill="#FFFFFF"></path>
                        <path d="M8.7,41.2 L8.7,41.2 C8.7,41.9 8.1,42.4 7.4,42.4 C6.7,42.4 6.2,41.9 6.1,41.2 L6.1,41.1 L6.1,40.9 C6.2,40.5 6.4,40.2 6.7,40 C6.8,39.9 7,39.9 7.1,39.9 L7.1,39.9 L7.3,39.9 L7.5,39.9 C7.6,39.9 7.8,40 7.9,40 C8.2,40.2 8.4,40.5 8.5,40.9 C8.7,41 8.7,41.1 8.7,41.2 L8.7,41.2 Z" id="Shape" fill="#FFFFFF"></path>
                        <path d="M12.1,41.4 L12.1,41.4 C12.1,42.1 11.5,42.6 10.8,42.6 C10.1,42.6 9.6,42.1 9.5,41.4 L9.5,41.4 L9.5,41.2 C9.6,40.8 9.8,40.5 10.2,40.3 C10.3,40.3 10.4,40.2 10.5,40.2 L10.5,40.2 L10.7,40.2 L10.9,40.2 L10.9,40.2 C11,40.2 11.1,40.3 11.3,40.3 C11.6,40.5 11.9,40.8 11.9,41.2 C12.1,41.3 12.1,41.3 12.1,41.4 L12.1,41.4 Z" id="Shape" fill="#FFFFFF"></path>
                        <path d="M15.6,41.4 L15.6,41.4 C15.6,42.1 15,42.6 14.3,42.6 C13.6,42.6 13,42.1 13,41.4 L13,41.4 L13,41.2 C13,40.8 13.3,40.5 13.6,40.3 C13.7,40.3 13.8,40.2 14,40.2 L14,40.2 L14.2,40.2 L14.4,40.2 L14.4,40.2 C14.5,40.2 14.6,40.3 14.7,40.3 C15.1,40.5 15.3,40.8 15.3,41.2 C15.6,41.3 15.6,41.3 15.6,41.4 L15.6,41.4 Z" id="Shape" fill="#FFFFFF"></path>
                        <path d="M19.6,41.4 L19.6,41.4 C19.6,42.1 19,42.6 18.3,42.6 C17.6,42.6 17,42.1 17,41.4 L17,41.4 L17,41.2 C17,40.8 17.3,40.5 17.6,40.3 C17.7,40.3 17.8,40.2 18,40.2 L18,40.2 L18.2,40.2 L18.4,40.2 L18.4,40.2 C18.5,40.2 18.6,40.3 18.7,40.3 C19,40.5 19.3,40.8 19.3,41.2 C19.6,41.3 19.6,41.3 19.6,41.4 L19.6,41.4 Z" id="Shape" fill="#FFFFFF"></path>
                        <path d="M23.2,41.3 C23.2,41.4 23.2,41.4 23.2,41.3 C23.2,42 22.6,42.5 21.9,42.5 C21.2,42.5 20.6,42 20.6,41.3 L20.6,41.3 L20.6,41.1 C20.6,40.7 20.9,40.4 21.2,40.2 C21.3,40.1 21.4,40.1 21.6,40.1 L21.6,40.1 L21.8,40.1 L22,40.1 C22.1,40.1 22.3,40.2 22.4,40.2 C22.7,40.4 23,40.7 23,41.1 C23.2,41.2 23.2,41.3 23.2,41.3 L23.2,41.3 Z" id="Shape" fill="#FFFFFF"></path>
                        <path d="M26.6,41.3 C26.6,41.4 26.6,41.4 26.6,41.3 C26.6,42 26,42.5 25.3,42.5 C24.6,42.5 24,42 24,41.3 L24,41.3 L24,41.1 C24,40.9 24.1,40.7 24.3,40.5 C24.4,40.4 24.5,40.3 24.7,40.2 C24.8,40.1 24.9,40.1 25.1,40.1 L25.1,40.1 L25.3,40.1 L25.5,40.1 C25.7,40.1 25.8,40.2 25.9,40.2 C26.2,40.4 26.5,40.7 26.5,41.1 C26.6,41.2 26.6,41.3 26.6,41.3 L26.6,41.3 Z" id="Shape" fill="#FFFFFF"></path>
                        <path d="M29.8,41.3 C29.8,41.4 29.8,41.4 29.8,41.3 C29.8,42 29.2,42.5 28.5,42.5 C27.8,42.5 27.3,42 27.2,41.3 L27.2,41.3 L27.2,41.1 C27.2,40.7 27.5,40.4 27.8,40.2 C27.9,40.1 28,40.1 28.2,40.1 L28.2,40.1 L28.4,40.1 L28.6,40.1 C28.7,40.1 28.9,40.2 29,40.2 C29.3,40.4 29.6,40.7 29.6,41.1 C29.8,41.2 29.8,41.3 29.8,41.3 L29.8,41.3 Z" id="Shape" fill="#FFFFFF"></path>
                        <path d="M33.2,41.3 C33.2,41.4 33.2,41.4 33.2,41.3 C33.2,42 32.6,42.5 31.9,42.5 C31.2,42.5 30.7,42 30.7,41.3 L30.7,41.3 L30.7,41.1 C30.7,40.7 31,40.4 31.3,40.2 C31.4,40.1 31.6,40.1 31.7,40.1 L31.7,40.1 L31.9,40.1 L32.1,40.1 L32.1,40.1 C32.3,40.1 32.4,40.2 32.5,40.2 C32.6,40.3 32.6,40.3 32.7,40.3 C32.9,40.5 33.1,40.7 33.1,41 C33.2,41.2 33.2,41.3 33.2,41.3 L33.2,41.3 Z" id="Shape" fill="#FFFFFF"></path>
                        <path d="M36.8,41.3 C36.8,41.4 36.8,41.4 36.8,41.3 C36.8,42 36.2,42.5 35.5,42.5 C34.8,42.5 34.3,42 34.2,41.3 L34.2,41.3 L34.2,41.1 C34.3,40.7 34.5,40.4 34.8,40.2 C34.9,40.1 35,40.1 35.2,40.1 L35.2,40.1 L35.4,40.1 L35.6,40.1 C35.8,40.1 35.9,40.2 36,40.2 C36.3,40.4 36.6,40.7 36.6,41.1 C36.8,41.2 36.8,41.3 36.8,41.3 L36.8,41.3 Z" id="Shape" fill="#FFFFFF"></path>
                        <path d="M40.3,41.3 C40.3,41.4 40.3,41.4 40.3,41.3 C40.3,42 39.7,42.5 39,42.5 C38.3,42.5 37.8,42 37.7,41.3 L37.7,41.3 L37.7,41.1 C37.7,40.7 38,40.4 38.3,40.2 C38.4,40.1 38.6,40.1 38.7,40.1 L38.7,40.1 L38.9,40.1 L39.1,40.1 C39.3,40.1 39.4,40.2 39.5,40.2 C39.8,40.4 40.1,40.7 40.1,41.1 C40.3,41.2 40.3,41.3 40.3,41.3 L40.3,41.3 Z" id="Shape" fill="#FFFFFF"></path>
                        <path d="M43.7,41.4 L43.7,41.4 C43.7,42.1 43.1,42.6 42.4,42.6 C41.7,42.6 41.1,42.1 41.1,41.4 L41.1,41.4 L41.1,41.2 C41.1,40.8 41.4,40.5 41.7,40.3 C41.8,40.3 41.9,40.2 42,40.2 L42,40.2 L42.2,40.2 L42.4,40.2 L42.4,40.2 C42.6,40.2 42.8,40.3 43,40.5 C43.2,40.7 43.4,40.9 43.4,41.2 C43.7,41.3 43.7,41.3 43.7,41.4 L43.7,41.4 Z" id="Shape" fill="#FFFFFF"></path>
                        <path d="M47,41.4 L47,41.4 C47,42.1 46.4,42.6 45.8,42.6 C45.1,42.6 44.5,42.1 44.5,41.4 L44.5,41.4 L44.5,41.2 C44.5,40.9 44.7,40.6 44.9,40.5 C45.1,40.3 45.3,40.3 45.5,40.2 L45.5,40.2 L45.7,40.2 L45.9,40.2 L45.9,40.2 C46,40.2 46.2,40.3 46.2,40.3 C46.6,40.5 46.8,40.8 46.8,41.2 C47,41.3 47,41.3 47,41.4 L47,41.4 Z" id="Shape" fill="#FFFFFF"></path>
                        <path d="M50.1,41.4 C50.1,41.5 50.1,41.5 50.1,41.4 C50.1,42.1 49.5,42.6 48.8,42.6 C48.1,42.6 47.5,42.1 47.5,41.4 L47.5,41.4 L47.5,41.2 C47.5,40.8 47.8,40.5 48.1,40.3 C48.3,40.2 48.5,40.1 48.7,40.1 C48.9,40.1 49.1,40.2 49.3,40.3 C49.6,40.5 49.9,40.8 49.9,41.2 C50.1,41.3 50.1,41.4 50.1,41.4 L50.1,41.4 Z" id="Shape" fill="#FFFFFF"></path>
                        <path d="M53.7,41.4 C53.7,41.5 53.7,41.5 53.7,41.4 C53.7,42.1 53.1,42.6 52.4,42.6 C51.7,42.6 51.1,42.1 51.1,41.4 L51.1,41.4 L51.1,41.2 C51.1,41 51.2,40.8 51.4,40.6 C51.5,40.5 51.6,40.4 51.8,40.3 C52,40.2 52.2,40.1 52.4,40.1 C52.7,40.1 52.9,40.2 53,40.3 C53.3,40.5 53.6,40.8 53.6,41.2 C53.7,41.3 53.7,41.4 53.7,41.4 L53.7,41.4 Z" id="Shape" fill="#FFFFFF"></path>
                        <path d="M57.1,41.5 L57.1,41.5 C57.1,42.2 56.5,42.7 55.8,42.7 C55.1,42.7 54.6,42.2 54.5,41.6 L54.5,41.5 L54.5,41.3 C54.6,40.7 55.1,40.3 55.7,40.3 C56.3,40.3 56.8,40.8 56.9,41.3 C57.1,41.4 57.1,41.4 57.1,41.5 L57.1,41.5 Z" id="Shape" fill="#FFFFFF"></path>
                        <path d="M60.3,41.5 L60.3,41.5 C60.3,42.2 59.7,42.7 59,42.7 C58.3,42.7 57.8,42.2 57.7,41.6 L57.7,41.5 L57.7,41.3 C57.8,40.7 58.3,40.3 58.9,40.3 C59.5,40.3 60,40.8 60.1,41.3 C60.3,41.4 60.3,41.4 60.3,41.5 L60.3,41.5 Z" id="Shape" fill="#FFFFFF"></path>
                        <path d="M63.8,41.3 L63.8,41.3 C63.8,42 63.2,42.5 62.5,42.5 C61.8,42.5 61.3,42 61.2,41.4 L61.2,41.3 L61.2,41.1 C61.3,40.5 61.8,40.1 62.4,40.1 C63.1,40.1 63.6,40.5 63.7,41.1 C63.8,41.2 63.8,41.2 63.8,41.3 L63.8,41.3 Z" id="Shape" fill="#FFFFFF"></path>
                        <path d="M67.3,41.3 L67.3,41.3 C67.3,42 66.7,42.5 66,42.5 C65.3,42.5 64.8,42 64.7,41.4 L64.7,41.3 L64.7,41.1 C64.8,40.5 65.3,40.1 65.9,40.1 C66.5,40.1 67.1,40.5 67.1,41.1 C67.3,41.2 67.3,41.2 67.3,41.3 L67.3,41.3 Z" id="Shape" fill="#FFFFFF"></path>
                        <path d="M70.7,41.3 C70.7,41.4 70.7,41.4 70.7,41.3 C70.7,42 70.1,42.5 69.4,42.5 C68.7,42.5 68.1,42 68.1,41.3 L68.1,41.3 L68.1,41.1 C68.1,40.8 68.3,40.5 68.5,40.4 C68.6,40.4 68.6,40.3 68.7,40.3 C68.8,40.2 68.9,40.2 69.1,40.2 L69.1,40.2 L69.3,40.2 L69.5,40.2 C69.6,40.2 69.8,40.3 69.9,40.3 C70.2,40.5 70.5,40.8 70.5,41.2 C70.7,41.2 70.7,41.3 70.7,41.3 L70.7,41.3 Z" id="Shape" fill="#FFFFFF"></path>
                        <path d="M69.5,38.4 L69.5,32.7 L69.3,32.7 L69.2,30.2 L67.7,32.7 L66.7,32.7 L65.5,29.7 L64.1,32.7 L63.3,32.7 L62.1,29.7 L60.6,32.7 L59.8,32.7 L58.6,29.8 L57.2,32.7 L56.4,32.7 L55.2,29.7 L53.8,32.7 L53.6,32.7 C53.8,27.4 52.8,13.9 39.3,12.4 L39.2,10.4 L37.7,10.3 L37.4,6.5 L36.8,6.4 L37,3.8 L39.1,0.9 L36,2.5 L32.9,1 L34.9,3.7 L35,6.6 L34.1,6.6 L34.1,10.2 L33,10.2 L32.9,12.2 C27.5,12.8 17.3,16 19.3,32.5 L18.8,32.5 L17.6,29.5 L16.2,32.5 L15.4,32.5 L14.2,29.5 L12.7,32.5 L12,32.5 L10.8,29.5 L9.4,32.5 L8.6,32.5 L7.4,29.5 L5.9,32.5 L5.2,32.5 L3.8,29.7 L3.5,32.5 L3.5,32.7 L3.5,38.2 L0.9,38.2 L0.9,46.4 L71.5,46.4 L71.5,38.2 L69.5,38.2 L69.5,38.4 Z M5.2,41.3 C5.2,42 4.6,42.6 3.9,42.6 C3.2,42.6 2.6,42 2.6,41.3 L2.6,41.2 L2.6,41 C2.7,40.4 3.2,39.9 3.8,39.9 C4.4,39.9 5,40.4 5.1,41 C5.2,41.1 5.2,41.2 5.2,41.3 L5.2,41.3 L5.2,41.3 Z M8.7,41.2 C8.7,41.9 8.1,42.5 7.4,42.5 C6.7,42.5 6.1,41.9 6.1,41.2 L6.1,41.1 L6.1,40.9 C6.2,40.5 6.4,40.2 6.7,40 C6.8,39.9 7,39.9 7.1,39.9 L7.1,39.9 L7.3,39.9 L7.5,39.9 C7.6,39.9 7.8,40 7.9,40 C8.2,40.2 8.4,40.5 8.5,40.9 C8.7,41 8.7,41.1 8.7,41.2 L8.7,41.2 L8.7,41.2 Z M12.1,41.4 L12.1,41.4 C12.1,42.1 11.5,42.7 10.8,42.7 C10.1,42.7 9.5,42.1 9.5,41.4 L9.5,41.4 L9.5,41.4 L9.5,41.2 C9.6,40.8 9.8,40.5 10.2,40.3 C10.3,40.2 10.4,40.2 10.5,40.2 L10.5,40.2 L10.7,40.2 L10.9,40.2 L10.9,40.2 C11,40.2 11.1,40.3 11.3,40.3 C11.6,40.5 11.9,40.8 11.9,41.2 C12.1,41.3 12.1,41.3 12.1,41.4 L12.1,41.4 L12.1,41.4 Z M15.6,41.4 L15.6,41.4 C15.6,42.1 15,42.7 14.3,42.7 C13.6,42.7 13,42.1 13,41.4 L13,41.4 L13,41.4 L13,41.2 C13,40.8 13.3,40.5 13.6,40.3 C13.7,40.2 13.8,40.2 14,40.2 L14,40.2 L14.2,40.2 L14.4,40.2 L14.4,40.2 C14.5,40.2 14.6,40.3 14.7,40.3 C15.1,40.5 15.3,40.8 15.3,41.2 C15.6,41.3 15.6,41.3 15.6,41.4 L15.6,41.4 L15.6,41.4 Z M22.8,28.4 L25.1,28.4 L25.1,28.9 L33.5,28.9 C34.2,27.9 35.3,27.2 36.4,27.2 C37.5,27.2 38.6,27.9 39.3,28.9 L50.1,28.9 L50.1,37.8 L47.7,37.8 L47.7,37.7 L22.8,37.7 L22.8,28.4 L22.8,28.4 Z M19.6,41.4 L19.6,41.4 C19.6,42.1 19,42.7 18.3,42.7 C17.6,42.7 17,42.1 17,41.4 L17,41.4 L17,41.4 L17,41.2 C17,40.8 17.3,40.5 17.6,40.3 C17.7,40.2 17.8,40.2 18,40.2 L18,40.2 L18.2,40.2 L18.4,40.2 L18.4,40.2 C18.5,40.2 18.6,40.3 18.7,40.3 C19,40.5 19.3,40.8 19.3,41.2 C19.6,41.3 19.6,41.3 19.6,41.4 L19.6,41.4 L19.6,41.4 Z M23.2,41.4 L23.2,41.4 C23.2,42.1 22.6,42.7 21.9,42.7 C21.2,42.7 20.6,42.1 20.6,41.4 L20.6,41.3 L20.6,41.3 L20.6,41.1 C20.6,40.7 20.9,40.4 21.2,40.2 C21.3,40.1 21.4,40.1 21.6,40.1 L21.6,40.1 L21.8,40.1 L22,40.1 C22.1,40.1 22.3,40.2 22.4,40.2 C22.7,40.4 23,40.7 23,41.1 C23.2,41.2 23.2,41.3 23.2,41.4 L23.2,41.4 L23.2,41.4 Z M26.6,41.4 L26.6,41.4 C26.6,42.1 26,42.7 25.3,42.7 C24.6,42.7 24,42.1 24,41.4 L24,41.3 L24,41.3 L24,41.1 C24,40.9 24.1,40.7 24.3,40.5 C24.4,40.4 24.5,40.3 24.7,40.2 C24.8,40.1 24.9,40.1 25.1,40.1 L25.1,40.1 L25.3,40.1 L25.5,40.1 C25.7,40.1 25.8,40.2 25.9,40.2 C26.2,40.4 26.5,40.7 26.5,41.1 C26.6,41.2 26.6,41.3 26.6,41.4 L26.6,41.4 L26.6,41.4 Z M29.8,41.4 L29.8,41.4 C29.8,42.1 29.2,42.7 28.5,42.7 C27.8,42.7 27.2,42.1 27.2,41.4 L27.2,41.3 L27.2,41.3 L27.2,41.1 C27.2,40.7 27.5,40.4 27.8,40.2 C27.9,40.1 28,40.1 28.2,40.1 L28.2,40.1 L28.4,40.1 L28.6,40.1 C28.7,40.1 28.9,40.2 29,40.2 C29.3,40.4 29.6,40.7 29.6,41.1 C29.8,41.2 29.8,41.3 29.8,41.4 L29.8,41.4 L29.8,41.4 Z M33.2,41.4 L33.2,41.4 C33.2,42.1 32.6,42.7 31.9,42.7 C31.2,42.7 30.7,42.1 30.7,41.4 L30.7,41.3 L30.7,41.3 L30.7,41.1 C30.7,40.7 31,40.4 31.3,40.2 C31.4,40.1 31.6,40.1 31.7,40.1 L31.7,40.1 L31.9,40.1 L32.1,40.1 L32.1,40.1 C32.3,40.1 32.4,40.2 32.5,40.2 C32.6,40.2 32.6,40.3 32.7,40.3 C32.9,40.5 33.1,40.7 33.1,41 C33.2,41.2 33.2,41.3 33.2,41.4 L33.2,41.4 L33.2,41.4 Z M36.8,41.4 L36.8,41.4 C36.8,42.1 36.2,42.7 35.5,42.7 C34.8,42.7 34.2,42.1 34.2,41.4 L34.2,41.3 L34.2,41.3 L34.2,41.1 C34.3,40.7 34.5,40.4 34.8,40.2 C34.9,40.1 35,40.1 35.2,40.1 L35.2,40.1 L35.4,40.1 L35.6,40.1 C35.8,40.1 35.9,40.2 36,40.2 C36.3,40.4 36.6,40.7 36.6,41.1 C36.8,41.2 36.8,41.3 36.8,41.4 L36.8,41.4 L36.8,41.4 Z M40.3,41.4 L40.3,41.4 C40.3,42.1 39.7,42.7 39,42.7 C38.3,42.7 37.7,42.1 37.7,41.4 L37.7,41.3 L37.7,41.3 L37.7,41.1 C37.7,40.7 38,40.4 38.3,40.2 C38.4,40.1 38.6,40.1 38.7,40.1 L38.7,40.1 L38.9,40.1 L39.1,40.1 C39.3,40.1 39.4,40.2 39.5,40.2 C39.8,40.4 40.1,40.7 40.1,41.1 C40.3,41.2 40.3,41.3 40.3,41.4 L40.3,41.4 L40.3,41.4 Z M43.7,41.4 L43.7,41.4 C43.7,42.1 43.1,42.7 42.4,42.7 C41.7,42.7 41.1,42.1 41.1,41.4 L41.1,41.4 L41.1,41.4 L41.1,41.2 C41.1,40.8 41.4,40.5 41.7,40.3 C41.8,40.2 41.9,40.2 42,40.2 L42,40.2 L42.2,40.2 L42.4,40.2 L42.4,40.2 C42.6,40.2 42.8,40.3 43,40.5 C43.2,40.7 43.4,40.9 43.4,41.2 C43.7,41.3 43.7,41.3 43.7,41.4 L43.7,41.4 L43.7,41.4 Z M47,41.4 L47,41.4 C47,42.1 46.4,42.7 45.8,42.7 C45.1,42.7 44.5,42.1 44.5,41.4 L44.5,41.4 L44.5,41.4 L44.5,41.2 C44.5,40.9 44.7,40.6 44.9,40.5 C45.1,40.3 45.3,40.3 45.5,40.2 L45.5,40.2 L45.7,40.2 L45.9,40.2 L45.9,40.2 C46,40.2 46.2,40.3 46.2,40.3 C46.6,40.5 46.8,40.8 46.8,41.2 C47,41.3 47,41.3 47,41.4 L47,41.4 L47,41.4 Z M50.1,41.5 L50.1,41.5 C50.1,42.2 49.5,42.8 48.8,42.8 C48.1,42.8 47.5,42.2 47.5,41.5 L47.5,41.4 L47.5,41.4 L47.5,41.2 C47.5,40.8 47.8,40.5 48.1,40.3 C48.3,40.2 48.5,40.1 48.7,40.1 C48.9,40.1 49.1,40.2 49.3,40.3 C49.6,40.5 49.9,40.8 49.9,41.2 C50.1,41.3 50.1,41.4 50.1,41.5 L50.1,41.5 L50.1,41.5 Z M53.7,41.5 L53.7,41.5 C53.7,42.2 53.1,42.8 52.4,42.8 C51.7,42.8 51.1,42.2 51.1,41.5 L51.1,41.4 L51.1,41.4 L51.1,41.2 C51.1,41 51.2,40.8 51.4,40.6 C51.5,40.5 51.6,40.4 51.8,40.3 C52,40.2 52.2,40.1 52.4,40.1 C52.7,40.1 52.9,40.2 53,40.3 C53.3,40.5 53.6,40.8 53.6,41.2 C53.7,41.3 53.7,41.4 53.7,41.5 L53.7,41.5 L53.7,41.5 Z M57.1,41.5 C57.1,42.2 56.5,42.8 55.8,42.8 C55.1,42.8 54.5,42.2 54.5,41.5 L54.5,41.4 L54.5,41.2 C54.6,40.6 55.1,40.2 55.7,40.2 C56.3,40.2 56.8,40.7 56.9,41.2 C57.1,41.4 57.1,41.4 57.1,41.5 L57.1,41.5 L57.1,41.5 Z M60.3,41.5 C60.3,42.2 59.7,42.8 59,42.8 C58.3,42.8 57.7,42.2 57.7,41.5 L57.7,41.4 L57.7,41.2 C57.8,40.6 58.3,40.2 58.9,40.2 C59.5,40.2 60,40.7 60.1,41.2 C60.3,41.4 60.3,41.4 60.3,41.5 L60.3,41.5 L60.3,41.5 Z M63.8,41.4 C63.8,42.1 63.2,42.7 62.5,42.7 C61.8,42.7 61.2,42.1 61.2,41.4 L61.2,41.3 L61.2,41.1 C61.3,40.5 61.8,40.1 62.4,40.1 C63.1,40.1 63.6,40.5 63.7,41.1 C63.8,41.2 63.8,41.2 63.8,41.4 L63.8,41.4 L63.8,41.4 Z M67.3,41.4 C67.3,42.1 66.7,42.7 66,42.7 C65.3,42.7 64.7,42.1 64.7,41.4 L64.7,41.3 L64.7,41.1 C64.8,40.5 65.3,40.1 65.9,40.1 C66.5,40.1 67.1,40.5 67.1,41.1 C67.3,41.2 67.3,41.2 67.3,41.4 L67.3,41.4 L67.3,41.4 Z M70.7,41.4 L70.7,41.4 C70.7,42.1 70.1,42.7 69.4,42.7 C68.7,42.7 68.1,42.1 68.1,41.4 L68.1,41.3 L68.1,41.3 L68.1,41.1 C68.1,40.8 68.3,40.5 68.5,40.4 C68.6,40.3 68.6,40.3 68.7,40.3 C68.8,40.2 68.9,40.2 69.1,40.2 L69.1,40.2 L69.3,40.2 L69.5,40.2 C69.6,40.2 69.8,40.3 69.9,40.3 C70.2,40.5 70.5,40.8 70.5,41.2 C70.7,41.2 70.7,41.3 70.7,41.4 L70.7,41.4 L70.7,41.4 Z" id="Shape" fill="#000000"></path>
                        <path id="Shape" fill="#000000" d="M3.5,32.7 L3.5,32.9 L3.5,32.7 L3.5,32.7 Z"></path>
                        <path d="M47.6,28.9 L47.6,37.7 L25,37.7 L25,28.9 L33.4,28.9 C32.7,29.8 32.3,31.1 32.3,32.4 C32.3,35.3 34.1,37.6 36.3,37.6 C38.5,37.6 40.2,35.3 40.2,32.4 C40.2,31 39.8,29.8 39.2,28.9 L47.6,28.9 L47.6,28.9 Z" id="Shape" fill="#000000"></path>
                        <path d="M40.4,32.4 C40.4,35.3 38.6,37.6 36.5,37.6 C34.3,37.6 32.5,35.3 32.5,32.4 C32.5,31 32.9,29.8 33.6,28.9 C34.3,27.9 35.4,27.2 36.5,27.2 C37.6,27.2 38.7,27.9 39.4,28.9 C40,29.8 40.4,31 40.4,32.4 L40.4,32.4 Z" id="Shape" fill="#FFFFFF"></path>
                        <rect id="Rectangle-path" fill="#FFFFFF" x="22.8" y="28.4" width="2.3" height="9.3"></rect>
                        <rect id="Rectangle-path" fill="#FFFFFF" x="47.6" y="28.9" width="2.4" height="8.9"></rect>
                    </g>
                    <g transform="translate(430.000000, 85.000000)">
                        <g>
                            <path d="M25.2,57.6 C24,55.9 23.4,45.4 23.4,45.4 L23.2,46.4 L23.2,21.4 L20.3,21.4 L20.3,11.9 C20.4,11.6 20.4,11.3 20.4,11.1 C20.4,9.2 18.9,7.5 16.9,6.8 C16.7,6 15.9,5.3 15,5.2 L15,0 L14.3,0 L14.3,5.2 C13.4,5.4 12.7,6 12.5,6.9 C10.6,7.7 9.3,9.3 9.3,11.1 L9.3,21.5 L6.3,21.5 L6.3,45.7 L6.2,45.5 C6.2,45.5 5.3,56 3.5,57.7 L0.3,57.7 L0.3,79.3 L28.7,79.3 L28.7,57.7 L25.2,57.7 L25.2,57.6 Z M14.9,18.8 C16.8,18.8 18.3,20.3 18.3,22.2 C18.3,24 16.8,25.6 14.9,25.6 C13.1,25.6 11.6,24.1 11.6,22.2 C11.6,20.3 13.1,18.8 14.9,18.8 L14.9,18.8 Z M11.6,27.6 L18.7,27.6 L18.7,39 L11.6,39 L11.6,27.6 L11.6,27.6 Z M15.1,68.1 C12.4,68.1 10.2,65.9 10.2,63.1 C10.2,60.4 12.4,58.1 15.1,58.1 C17.8,58.1 20,60.3 20,63.1 C20,65.9 17.8,68.1 15.1,68.1 L15.1,68.1 Z" id="Shape" fill="#000000"></path>
                            <path d="M18.3,22.2 C18.3,24 16.8,25.6 14.9,25.6 C13.1,25.6 11.6,24.1 11.6,22.2 C11.6,20.3 13.1,18.8 14.9,18.8 C16.8,18.8 18.3,20.3 18.3,22.2 L18.3,22.2 Z" id="Shape" fill="#000000"></path>
                            <rect id="Rectangle-path" fill="#000000" x="11.6" y="27.6" width="7.1" height="11.4"></rect>
                            <path d="M20,63.1 C20,65.9 17.8,68.1 15.1,68.1 C12.4,68.1 10.2,65.9 10.2,63.1 C10.2,60.4 12.4,58.1 15.1,58.1 C17.8,58.2 20,60.4 20,63.1 L20,63.1 Z" id="Shape" fill="#000000"></path>
                            <path d="M20,63.1 C20,65.9 17.8,68.1 15.1,68.1 C12.4,68.1 10.2,65.9 10.2,63.1 C10.2,60.4 12.4,58.1 15.1,58.1 C17.8,58.2 20,60.4 20,63.1 L20,63.1 Z" id="Shape" fill="#FFFFFF"></path>
                            <path d="M18.3,22.2 C18.3,24 16.8,25.6 14.9,25.6 C13.1,25.6 11.6,24.1 11.6,22.2 C11.6,20.3 13.1,18.8 14.9,18.8 C16.8,18.8 18.3,20.3 18.3,22.2 L18.3,22.2 Z" id="Shape" fill="#FFFFFF"></path>
                            <rect id="Rectangle-path" fill="#FFFFFF" x="11.6" y="27.6" width="7.1" height="11.4"></rect>
                        </g>
                        <path d="M18.6,12.7 L18.6,18 L11.2,18 L11.2,12.7 C11.2,10.7 12.9,9 14.9,9 C17,9 18.6,10.6 18.6,12.7 L18.6,12.7 Z" id="Shape" fill="#FFFFFF"></path>
                    </g>
                </g>
            </g>
        </g>
    </g>
</svg>